<?xml version="1.0" encoding="UTF-8" standalone="no"?>
<!-- Created with Inkscape (http://www.inkscape.org/) -->

<svg
   xmlns:dc="http://purl.org/dc/elements/1.1/"
   xmlns:cc="http://creativecommons.org/ns#"
   xmlns:rdf="http://www.w3.org/1999/02/22-rdf-syntax-ns#"
   xmlns:svg="http://www.w3.org/2000/svg"
   xmlns="http://www.w3.org/2000/svg"
   xmlns:sodipodi="http://sodipodi.sourceforge.net/DTD/sodipodi-0.dtd"
   xmlns:inkscape="http://www.inkscape.org/namespaces/inkscape"
   width="210mm"
   height="297mm"
   viewBox="0 0 744.09448819 1052.3622047"
   id="svg5447"
   version="1.1"
   inkscape:version="0.91 r13725"
   sodipodi:docname="doubleRootSame.svg">
  <defs
     id="defs5449" />
  <sodipodi:namedview
     id="base"
     pagecolor="#ffffff"
     bordercolor="#666666"
     borderopacity="1.0"
     inkscape:pageopacity="0.0"
     inkscape:pageshadow="2"
     inkscape:zoom="0.7"
     inkscape:cx="314.09449"
     inkscape:cy="520"
     inkscape:document-units="px"
     inkscape:current-layer="layer1"
     showgrid="false"
     inkscape:window-width="1536"
     inkscape:window-height="801"
     inkscape:window-x="-8"
     inkscape:window-y="-8"
     inkscape:window-maximized="1"
     inkscape:object-nodes="true"
     inkscape:snap-nodes="false" />
  <metadata
     id="metadata5452">
    <rdf:RDF>
      <cc:Work
         rdf:about="">
        <dc:format>image/svg+xml</dc:format>
        <dc:type
           rdf:resource="http://purl.org/dc/dcmitype/StillImage" />
        <dc:title></dc:title>
      </cc:Work>
    </rdf:RDF>
  </metadata>
  <g
     inkscape:label="Layer 1"
     inkscape:groupmode="layer"
     id="layer1">
    <path
       inkscape:transform-center-y="-292.85714"
       inkscape:connector-curvature="0"
       id="path5997"
       d="m 381.42858,206.64792 c 0,0 3.3846,70.63911 0,105.71429 -3.58802,37.18321 -2.22255,77.9595 -21.42858,109.99999 -13.57409,22.645 -36.26571,42.00736 -61.42857,50 -20.01557,6.35768 -42.76262,1.81783 -62.85714,-4.28571 -22.8572,-6.94268 -41.43254,-23.78981 -62.1318,-35.71428 -30.53384,-17.58999 -91.551263,-52.85715 -91.551263,-52.85715"
       style="fill:none;fill-rule:evenodd;stroke:#ff00ff;stroke-width:4;stroke-linecap:butt;stroke-linejoin:miter;stroke-miterlimit:4;stroke-dasharray:none;stroke-opacity:1"
       sodipodi:nodetypes="caaaaac" />
    <path
       style="fill:none;fill-rule:evenodd;stroke:#ff00ff;stroke-width:4;stroke-linecap:butt;stroke-linejoin:miter;stroke-miterlimit:4;stroke-dasharray:none;stroke-opacity:1"
       d="m 381.42857,898.07648 c 0,0 4.79524,-70.80399 1e-5,-105.71429 -3.36463,-24.49524 -7.83269,-49.9043 -20.00001,-71.42856 -11.27241,-19.94115 -28.49716,-36.69382 -47.14286,-50 -17.86802,-12.7512 -38.06833,-26.21491 -60,-27.14285 -28.51167,-1.20635 -54.78691,16.62506 -80.70322,28.57142 -32.00181,14.75152 -91.551266,52.85714 -91.551266,52.85714"
       id="path6003"
       inkscape:connector-curvature="0"
       inkscape:transform-center-y="292.85714"
       sodipodi:nodetypes="caaaaac" />
    <path
       inkscape:transform-center-y="146.42857"
       inkscape:connector-curvature="0"
       id="path6005"
       d="m 680.82593,725.21934 c 0,0 -63.23006,-31.88972 -91.55126,-52.85715 -35.33515,-26.16016 -78.89647,-49.67706 -96.41753,-89.99999 -6.07272,-13.97575 -3.57661,-30.90188 0,-45.71428 4.89876,-20.28801 14.94067,-39.90912 28.57143,-55.71429 18.16478,-21.06246 44.46695,-33.50486 67.8461,-48.57143 29.62012,-19.08853 91.55126,-52.85714 91.55126,-52.85714"
       style="fill:none;fill-rule:evenodd;stroke:#ff00ff;stroke-width:4;stroke-linecap:butt;stroke-linejoin:miter;stroke-miterlimit:4;stroke-dasharray:none;stroke-opacity:1"
       inkscape:transform-center-x="-253.62173"
       sodipodi:nodetypes="caaaaac" />
    <path
       style="fill:none;fill-rule:evenodd;stroke:#ff0096;stroke-width:4;stroke-linecap:butt;stroke-linejoin:miter;stroke-opacity:1;stroke-miterlimit:4;stroke-dasharray:none"
       d="m 390,210.93363 c 0,0 2.99161,121.60877 12.85714,181.42857 6.72845,40.79802 17.93642,80.91404 31.42857,120 16.42406,47.57952 25.76439,101.67315 60,138.57143 43.89712,47.3112 171.42858,90 171.42858,90"
       id="path6007"
       inkscape:connector-curvature="0"
       sodipodi:nodetypes="caaac" />
    <path
       style="fill:none;fill-rule:evenodd;stroke:#ff0096;stroke-width:4;stroke-linecap:butt;stroke-linejoin:miter;stroke-opacity:1;stroke-miterlimit:4;stroke-dasharray:none"
       d="m 80,409.50506 c 0,0 75.4684,32.07454 108.57143,55.71429 28.50324,20.35492 51.3014,47.74204 75.71428,72.85714 44.40778,45.68515 105.17931,82.16651 128.57143,141.42857 24.82918,62.90274 2.85715,202.85714 2.85715,202.85714"
       id="path6013"
       inkscape:connector-curvature="0"
       sodipodi:nodetypes="caaac" />
    <path
       style="fill:none;fill-rule:evenodd;stroke:#ff0096;stroke-width:4;stroke-linecap:butt;stroke-linejoin:miter;stroke-opacity:1;stroke-miterlimit:4;stroke-dasharray:none"
       d="m 75.714286,710.93363 c 0,0 71.898204,-43.69423 108.571424,-64.28571 37.14964,-20.85898 75.72673,-39.10683 112.85715,-60 53.59302,-30.15662 106.39629,-61.73749 158.57143,-94.28572 62.75355,-39.14732 185.71428,-121.42857 185.71428,-121.42857"
       id="path6015"
       inkscape:connector-curvature="0"
       sodipodi:nodetypes="caaac" />
    <path
       style="fill:none;fill-rule:evenodd;stroke:#7100ff;stroke-width:4;stroke-linecap:butt;stroke-linejoin:miter;stroke-opacity:1;stroke-miterlimit:4;stroke-dasharray:none"
       d="m 345.71429,216.64792 c 0,0 -3.9301,48.84845 -8.57143,72.85714 -5.52521,28.58084 -4.93418,61.34755 -22.85715,84.28572 -14.43791,18.47792 -38.10341,31.87249 -61.42857,34.28571 -23.82008,2.46442 -46.09751,-13.15859 -68.57143,-21.42857 -22.82661,-8.39976 -67.14285,-28.57143 -67.14285,-28.57143"
       id="path6025"
       inkscape:connector-curvature="0"
       sodipodi:nodetypes="caaaac" />
    <path
       style="fill:none;fill-rule:evenodd;stroke:#0020ff;stroke-width:4;stroke-linecap:butt;stroke-linejoin:miter;stroke-opacity:1;stroke-miterlimit:4;stroke-dasharray:none"
       d="m 317.14286,219.50506 c 0,0 -9.24184,49.1665 -20,71.42857 -10.23674,21.1831 -20.47135,46.45128 -41.42857,57.14286 -17.39136,8.87241 -39.34373,3.38744 -58.57143,0 C 180.67546,345.17535 150,330.93363 150,330.93363"
       id="path6027"
       inkscape:connector-curvature="0"
       sodipodi:nodetypes="caaac" />
    <path
       style="fill:none;fill-rule:evenodd;stroke:#ff004d;stroke-width:4;stroke-linecap:butt;stroke-linejoin:miter;stroke-opacity:1;stroke-miterlimit:4;stroke-dasharray:none"
       d="m 627.14286,330.93363 c 0,0 -50.54805,30.35781 -75.71429,45.71429 -28.65387,17.48464 -53.25203,61.39877 -85.71428,52.85714 -25.76418,-6.7792 -30.97563,-44.46464 -38.57143,-70 C 412.575,310.53124 415.71429,206.64792 415.71429,206.64792"
       id="path6029"
       inkscape:connector-curvature="0"
       sodipodi:nodetypes="caaac" />
    <path
       style="fill:none;fill-rule:evenodd;stroke:#ff0000;stroke-width:4;stroke-linecap:butt;stroke-linejoin:miter;stroke-opacity:1;stroke-miterlimit:4;stroke-dasharray:none"
       d="m 602.85714,302.3622 c 0,0 -88.67448,63.98072 -130,44.28572 -17.40834,-8.2965 -16.45858,-35.32944 -20,-54.28572 -5.33511,-28.55744 -1.42857,-87.14285 -1.42857,-87.14285"
       id="path6031"
       inkscape:connector-curvature="0"
       sodipodi:nodetypes="caac" />
    <path
       style="fill:none;fill-rule:evenodd;stroke:#7100ff;stroke-width:4;stroke-linecap:butt;stroke-linejoin:miter;stroke-opacity:1;stroke-miterlimit:4;stroke-dasharray:none"
       d="m 690,429.50506 c -20,1.42857 -66.45322,37.49062 -97.14286,60 -22.32378,16.37342 -54.77915,27.8058 -62.85714,54.28572 -6.33689,20.77256 4.658,45.08684 17.14286,62.85714 31.44179,44.75261 134.28571,94.28571 134.28571,94.28571"
       id="path6033"
       inkscape:connector-curvature="0"
       sodipodi:nodetypes="caaac" />
    <path
       style="fill:none;fill-rule:evenodd;stroke:#0020ff;stroke-width:4;stroke-linecap:butt;stroke-linejoin:miter;stroke-opacity:1;stroke-miterlimit:4;stroke-dasharray:none"
       d="m 694.28571,470.93363 c 0,0 -44.11529,29.03541 -61.42857,48.57143 -13.325,15.03571 -32.98467,31.39843 -31.42857,51.42857 3.19247,41.09348 80,94.28572 80,94.28572"
       id="path6035"
       inkscape:connector-curvature="0"
       sodipodi:nodetypes="caac" />
    <path
       style="fill:none;fill-rule:evenodd;stroke:#ff004d;stroke-width:4;stroke-linecap:butt;stroke-linejoin:miter;stroke-opacity:1;stroke-miterlimit:4;stroke-dasharray:none"
       d="m 428.57143,886.64792 c 0,0 1.07781,-65.03901 5.71428,-97.14286 3.91304,-27.09467 -0.69173,-60.54843 18.57143,-80 11.37775,-11.48904 31.03645,-12.85505 47.14286,-11.42857 51.82191,4.58966 142.85714,62.85714 142.85714,62.85714"
       id="path6037"
       inkscape:connector-curvature="0"
       sodipodi:nodetypes="caaac" />
    <path
       style="fill:none;fill-rule:evenodd;stroke:#ff0000;stroke-width:4;stroke-linecap:butt;stroke-linejoin:miter;stroke-opacity:1;stroke-miterlimit:4;stroke-dasharray:none"
       d="m 478.57143,872.3622 c 0,0 -3.08658,-57.13737 4.28571,-84.28571 3.51642,-12.94914 6.21207,-30.49015 18.57143,-35.71429 36.63438,-15.48489 114.28572,34.28572 114.28572,34.28572"
       id="path6039"
       inkscape:connector-curvature="0"
       sodipodi:nodetypes="caac" />
    <path
       style="fill:none;fill-rule:evenodd;stroke:#7100ff;stroke-width:4;stroke-linecap:butt;stroke-linejoin:miter;stroke-opacity:1;stroke-miterlimit:4;stroke-dasharray:none"
       d="m 120,752.3622 c 0,0 68.51221,-33.82375 105.71429,-37.14285 29.78705,-2.65754 65.22599,-4.40444 88.57142,14.28571 18.01669,14.42401 20.34246,41.84031 25.71429,64.28572 7.45573,31.15267 8.57143,95.71428 8.57143,95.71428"
       id="path6041"
       inkscape:connector-curvature="0"
       sodipodi:nodetypes="caaac" />
    <path
       style="fill:none;fill-rule:evenodd;stroke:#0020ff;stroke-width:4;stroke-linecap:butt;stroke-linejoin:miter;stroke-opacity:1;stroke-miterlimit:4;stroke-dasharray:none"
       d="m 158.57143,818.07649 c 2.85714,-7.14286 61.33112,-42.02855 92.85714,-32.85714 34.84899,10.13812 67.14286,85.71428 67.14286,85.71428"
       id="path6043"
       inkscape:connector-curvature="0"
       sodipodi:nodetypes="cac" />
    <path
       style="fill:none;fill-rule:evenodd;stroke:#ff004d;stroke-width:4;stroke-linecap:butt;stroke-linejoin:miter;stroke-opacity:1;stroke-miterlimit:4;stroke-dasharray:none"
       d="m 77.142857,442.3622 c 0,0 83.787283,35.41579 107.142853,71.42858 15.50532,23.90822 24.6518,57.74211 14.28572,84.28571 -16.42358,42.05458 -107.142859,82.85714 -107.142859,82.85714"
       id="path6045"
       inkscape:connector-curvature="0"
       sodipodi:nodetypes="caac" />
    <path
       style="fill:none;fill-rule:evenodd;stroke:#ff0000;stroke-width:4;stroke-linecap:butt;stroke-linejoin:miter;stroke-opacity:1;stroke-miterlimit:4;stroke-dasharray:none"
       d="m 72.857143,473.79078 c 11.428571,11.42857 69.926357,28.22528 79.999997,60 10.74029,33.87749 -12.42122,72.3526 -32.85714,101.42857 -10.73503,15.27367 -44.285714,34.28571 -44.285714,34.28571"
       id="path6047"
       inkscape:connector-curvature="0"
       sodipodi:nodetypes="caac" />
  </g>
</svg>
